<svg xmlns="http://www.w3.org/2000/svg" xmlns:xlink="http://www.w3.org/1999/xlink" contentStyleType="text/css" data-diagram-type="CLASS" height="423px" preserveAspectRatio="none" style="width:856px;height:423px;background:#FFFFFF;" version="1.1" viewBox="0 0 856 423" width="856px" zoomAndPan="magnify"><defs/><g><!--cluster MarcoConsiglio--><g class="cluster" data-entity="MarcoConsiglio" data-source-line="15" data-uid="ent0004" id="cluster_MarcoConsiglio"><path d="M121.5,4 L242.9287,4 A3.75,3.75 0 0 1 245.4287,6.5 L252.4287,26.2969 L846.5,26.2969 A2.5,2.5 0 0 1 849,28.7969 L849,413.5 A2.5,2.5 0 0 1 846.5,416 L121.5,416 A2.5,2.5 0 0 1 119,413.5 L119,6.5 A2.5,2.5 0 0 1 121.5,4" fill="none" style="stroke:#000000;stroke-width:1.5;"/><line style="stroke:#000000;stroke-width:1.5;" x1="119" x2="252.4287" y1="26.2969" y2="26.2969"/><text fill="#000000" font-family="sans-serif" font-size="14" font-weight="bold" lengthAdjust="spacing" textLength="120.4287" x="123" y="18.9951">MarcoConsiglio</text></g><!--cluster Goniometry--><g class="cluster" data-entity="Goniometry" data-source-line="15" data-uid="ent0005" id="cluster_Goniometry"><path d="M129.5,31 L222.7988,31 A3.75,3.75 0 0 1 225.2988,33.5 L232.2988,53.2969 L838.5,53.2969 A2.5,2.5 0 0 1 841,55.7969 L841,405.5 A2.5,2.5 0 0 1 838.5,408 L129.5,408 A2.5,2.5 0 0 1 127,405.5 L127,33.5 A2.5,2.5 0 0 1 129.5,31" fill="none" style="stroke:#000000;stroke-width:1.5;"/><line style="stroke:#000000;stroke-width:1.5;" x1="127" x2="232.2988" y1="53.2969" y2="53.2969"/><text fill="#000000" font-family="sans-serif" font-size="14" font-weight="bold" lengthAdjust="spacing" textLength="92.2988" x="131" y="45.9951">Goniometry</text></g><!--cluster Interfaces--><g class="cluster" data-entity="Interfaces" data-source-line="14" data-uid="ent0002" id="cluster_Interfaces"><path d="M178.5,108 L259.4326,108 A3.75,3.75 0 0 1 261.9326,110.5 L268.9326,130.2969 L310.5,130.2969 A2.5,2.5 0 0 1 313,132.7969 L313,222.5 A2.5,2.5 0 0 1 310.5,225 L178.5,225 A2.5,2.5 0 0 1 176,222.5 L176,110.5 A2.5,2.5 0 0 1 178.5,108" fill="none" style="stroke:#000000;stroke-width:1.5;"/><line style="stroke:#000000;stroke-width:1.5;" x1="176" x2="268.9326" y1="130.2969" y2="130.2969"/><text fill="#000000" font-family="sans-serif" font-size="14" font-weight="bold" lengthAdjust="spacing" textLength="79.9326" x="180" y="122.9951">Interfaces</text></g><!--cluster Builders--><g class="cluster" data-entity="Builders" data-source-line="26" data-uid="ent0009" id="cluster_Builders"><path d="M376.5,58 L442.4893,58 A3.75,3.75 0 0 1 444.9893,60.5 L451.9893,80.2969 L830.5,80.2969 A2.5,2.5 0 0 1 833,82.7969 L833,322.5 A2.5,2.5 0 0 1 830.5,325 L376.5,325 A2.5,2.5 0 0 1 374,322.5 L374,60.5 A2.5,2.5 0 0 1 376.5,58" fill="none" style="stroke:#000000;stroke-width:1.5;"/><line style="stroke:#000000;stroke-width:1.5;" x1="374" x2="451.9893" y1="80.2969" y2="80.2969"/><text fill="#000000" font-family="sans-serif" font-size="14" font-weight="bold" lengthAdjust="spacing" textLength="64.9893" x="378" y="72.9951">Builders</text></g><!--cluster Exceptions--><g class="cluster" data-entity="Exceptions" data-source-line="56" data-uid="ent0025" id="cluster_Exceptions"><path d="M137.5,233 L224.3184,233 A3.75,3.75 0 0 1 226.8184,235.5 L233.8184,255.2969 L351.5,255.2969 A2.5,2.5 0 0 1 354,257.7969 L354,397.5 A2.5,2.5 0 0 1 351.5,400 L137.5,400 A2.5,2.5 0 0 1 135,397.5 L135,235.5 A2.5,2.5 0 0 1 137.5,233" fill="none" style="stroke:#000000;stroke-width:1.5;"/><line style="stroke:#000000;stroke-width:1.5;" x1="135" x2="233.8184" y1="255.2969" y2="255.2969"/><text fill="#000000" font-family="sans-serif" font-size="14" font-weight="bold" lengthAdjust="spacing" textLength="85.8184" x="139" y="247.9951">Exceptions</text></g><!--cluster Operations--><g class="cluster" data-entity="Operations" data-source-line="68" data-uid="ent0032" id="cluster_Operations"><path d="M557.5,333 L645.6787,333 A3.75,3.75 0 0 1 648.1787,335.5 L655.1787,355.2969 L655.5,355.2969 A2.5,2.5 0 0 1 658,357.7969 L658,397.5 A2.5,2.5 0 0 1 655.5,400 L557.5,400 A2.5,2.5 0 0 1 555,397.5 L555,335.5 A2.5,2.5 0 0 1 557.5,333" fill="none" style="stroke:#000000;stroke-width:1.5;"/><line style="stroke:#000000;stroke-width:1.5;" x1="555" x2="655.1787" y1="355.2969" y2="355.2969"/><text fill="#000000" font-family="sans-serif" font-size="14" font-weight="bold" lengthAdjust="spacing" textLength="87.1787" x="559" y="347.9951">Operations</text></g><!--class Exception__class--><g class="entity" data-entity="Exception__class" data-source-line="54" data-uid="ent0024" id="entity_Exception__class"><rect fill="#F1F1F1" height="40.2656" rx="2.5" ry="2.5" style="stroke:#181818;stroke-width:0.5;" width="101.1455" x="6" y="306"/><ellipse cx="21" cy="326.1328" fill="#ADD1B2" rx="11" ry="11" style="stroke:#181818;stroke-width:1;"/><path d="M23.9688,331.7734 Q23.3906,332.0703 22.75,332.2109 Q22.1094,332.3672 21.4063,332.3672 Q18.9063,332.3672 17.5781,330.7266 Q16.2656,329.0703 16.2656,325.9453 Q16.2656,322.8203 17.5781,321.1641 Q18.9063,319.5078 21.4063,319.5078 Q22.1094,319.5078 22.75,319.6641 Q23.4063,319.8203 23.9688,320.1172 L23.9688,322.8359 Q23.3438,322.2578 22.75,321.9922 Q22.1563,321.7109 21.5313,321.7109 Q20.1875,321.7109 19.5,322.7891 Q18.8125,323.8516 18.8125,325.9453 Q18.8125,328.0391 19.5,329.1172 Q20.1875,330.1797 21.5313,330.1797 Q22.1563,330.1797 22.75,329.9141 Q23.3438,329.6328 23.9688,329.0547 L23.9688,331.7734 Z " fill="#000000"/><text fill="#000000" font-family="sans-serif" font-size="12" font-style="italic" lengthAdjust="spacing" textLength="64.4824" x="37.3315" y="322.1387">&#171;external&#187;</text><text fill="#000000" font-family="sans-serif" font-size="14" lengthAdjust="spacing" textLength="69.1455" x="35" y="337.9639">Exception</text></g><!--class Angle__class--><g class="entity" data-entity="Angle__class" data-source-line="19" data-uid="ent0006" id="entity_Angle__class"><rect fill="#F1F1F1" height="32" rx="2.5" ry="2.5" style="stroke:#181818;stroke-width:0.5;" width="71.8398" x="406.5" y="347"/><ellipse cx="421.5" cy="363" fill="#ADD1B2" rx="11" ry="11" style="stroke:#181818;stroke-width:1;"/><path d="M424.4688,368.6406 Q423.8906,368.9375 423.25,369.0781 Q422.6094,369.2344 421.9063,369.2344 Q419.4063,369.2344 418.0781,367.5938 Q416.7656,365.9375 416.7656,362.8125 Q416.7656,359.6875 418.0781,358.0313 Q419.4063,356.375 421.9063,356.375 Q422.6094,356.375 423.25,356.5313 Q423.9063,356.6875 424.4688,356.9844 L424.4688,359.7031 Q423.8438,359.125 423.25,358.8594 Q422.6563,358.5781 422.0313,358.5781 Q420.6875,358.5781 420,359.6563 Q419.3125,360.7188 419.3125,362.8125 Q419.3125,364.9063 420,365.9844 Q420.6875,367.0469 422.0313,367.0469 Q422.6563,367.0469 423.25,366.7813 Q423.8438,366.5 424.4688,365.9219 L424.4688,368.6406 Z " fill="#000000"/><text fill="#000000" font-family="sans-serif" font-size="14" lengthAdjust="spacing" textLength="39.8398" x="435.5" y="367.8467">Angle</text></g><!--class Angle__interface--><g class="entity" data-entity="Angle__interface" data-source-line="15" data-uid="ent0003" id="entity_Angle__interface"><rect fill="#F1F1F1" height="32" rx="2.5" ry="2.5" style="stroke:#181818;stroke-width:0.5;" width="71.8398" x="208.5" y="185"/><ellipse cx="223.5" cy="201" fill="#B4A7E5" rx="11" ry="11" style="stroke:#181818;stroke-width:1;"/><path d="M219.4219,196.7656 L219.4219,194.6094 L226.8125,194.6094 L226.8125,196.7656 L224.3438,196.7656 L224.3438,204.8438 L226.8125,204.8438 L226.8125,207 L219.4219,207 L219.4219,204.8438 L221.8906,204.8438 L221.8906,196.7656 L219.4219,196.7656 Z " fill="#000000"/><text fill="#000000" font-family="sans-serif" font-size="14" font-style="italic" lengthAdjust="spacing" textLength="39.8398" x="237.5" y="205.8467">Angle</text></g><!--class AngleBuilder__interface--><g class="entity" data-entity="AngleBuilder__interface" data-source-line="23" data-uid="ent0008" id="entity_AngleBuilder__interface"><rect fill="#F1F1F1" height="32" rx="2.5" ry="2.5" style="stroke:#181818;stroke-width:0.5;" width="121.3525" x="184" y="135"/><ellipse cx="199" cy="151" fill="#B4A7E5" rx="11" ry="11" style="stroke:#181818;stroke-width:1;"/><path d="M194.9219,146.7656 L194.9219,144.6094 L202.3125,144.6094 L202.3125,146.7656 L199.8438,146.7656 L199.8438,154.8438 L202.3125,154.8438 L202.3125,157 L194.9219,157 L194.9219,154.8438 L197.3906,154.8438 L197.3906,146.7656 L194.9219,146.7656 Z " fill="#000000"/><text fill="#000000" font-family="sans-serif" font-size="14" font-style="italic" lengthAdjust="spacing" textLength="89.3525" x="213" y="155.8467">AngleBuilder</text></g><!--class AngleBuilder__class--><g class="entity" data-entity="AngleBuilder__class" data-source-line="27" data-uid="ent0010" id="entity_AngleBuilder__class"><rect fill="#F1F1F1" height="32" rx="2.5" ry="2.5" style="stroke:#181818;stroke-width:0.5;" width="121.3525" x="382" y="160"/><ellipse cx="397" cy="176" fill="#A9DCDF" rx="11" ry="11" style="stroke:#181818;stroke-width:1;"/><path d="M397.1094,171.3438 L395.9531,176.4219 L398.2813,176.4219 L397.1094,171.3438 Z M395.625,169.1094 L398.6094,169.1094 L401.9688,181.5 L399.5156,181.5 L398.75,178.4375 L395.4688,178.4375 L394.7188,181.5 L392.2813,181.5 L395.625,169.1094 Z " fill="#000000"/><text fill="#000000" font-family="sans-serif" font-size="14" font-style="italic" lengthAdjust="spacing" textLength="89.3525" x="411" y="180.8467">AngleBuilder</text></g><!--class SumBuilder__class--><g class="entity" data-entity="SumBuilder__class" data-source-line="31" data-uid="ent0012" id="entity_SumBuilder__class"><rect fill="#F1F1F1" height="32" rx="2.5" ry="2.5" style="stroke:#181818;stroke-width:0.5;" width="112.9102" x="550" y="285"/><ellipse cx="565" cy="301" fill="#A9DCDF" rx="11" ry="11" style="stroke:#181818;stroke-width:1;"/><path d="M565.1094,296.3438 L563.9531,301.4219 L566.2813,301.4219 L565.1094,296.3438 Z M563.625,294.1094 L566.6094,294.1094 L569.9688,306.5 L567.5156,306.5 L566.75,303.4375 L563.4688,303.4375 L562.7188,306.5 L560.2813,306.5 L563.625,294.1094 Z " fill="#000000"/><text fill="#000000" font-family="sans-serif" font-size="14" font-style="italic" lengthAdjust="spacing" textLength="80.9102" x="579" y="305.8467">SumBuilder</text></g><!--class FromAngles__class--><g class="entity" data-entity="FromAngles__class" data-source-line="35" data-uid="ent0014" id="entity_FromAngles__class"><rect fill="#F1F1F1" height="32" rx="2.5" ry="2.5" style="stroke:#181818;stroke-width:0.5;" width="115.1455" x="710" y="285"/><ellipse cx="725" cy="301" fill="#ADD1B2" rx="11" ry="11" style="stroke:#181818;stroke-width:1;"/><path d="M727.9688,306.6406 Q727.3906,306.9375 726.75,307.0781 Q726.1094,307.2344 725.4063,307.2344 Q722.9063,307.2344 721.5781,305.5938 Q720.2656,303.9375 720.2656,300.8125 Q720.2656,297.6875 721.5781,296.0313 Q722.9063,294.375 725.4063,294.375 Q726.1094,294.375 726.75,294.5313 Q727.4063,294.6875 727.9688,294.9844 L727.9688,297.7031 Q727.3438,297.125 726.75,296.8594 Q726.1563,296.5781 725.5313,296.5781 Q724.1875,296.5781 723.5,297.6563 Q722.8125,298.7188 722.8125,300.8125 Q722.8125,302.9063 723.5,303.9844 Q724.1875,305.0469 725.5313,305.0469 Q726.1563,305.0469 726.75,304.7813 Q727.3438,304.5 727.9688,303.9219 L727.9688,306.6406 Z " fill="#000000"/><text fill="#000000" font-family="sans-serif" font-size="14" lengthAdjust="spacing" textLength="83.1455" x="739" y="305.8467">FromAngles</text></g><!--class FromDecimal__class--><g class="entity" data-entity="FromDecimal__class" data-source-line="39" data-uid="ent0016" id="entity_FromDecimal__class"><rect fill="#F1F1F1" height="32" rx="2.5" ry="2.5" style="stroke:#181818;stroke-width:0.5;" width="125.0986" x="544" y="235"/><ellipse cx="559" cy="251" fill="#ADD1B2" rx="11" ry="11" style="stroke:#181818;stroke-width:1;"/><path d="M561.9688,256.6406 Q561.3906,256.9375 560.75,257.0781 Q560.1094,257.2344 559.4063,257.2344 Q556.9063,257.2344 555.5781,255.5938 Q554.2656,253.9375 554.2656,250.8125 Q554.2656,247.6875 555.5781,246.0313 Q556.9063,244.375 559.4063,244.375 Q560.1094,244.375 560.75,244.5313 Q561.4063,244.6875 561.9688,244.9844 L561.9688,247.7031 Q561.3438,247.125 560.75,246.8594 Q560.1563,246.5781 559.5313,246.5781 Q558.1875,246.5781 557.5,247.6563 Q556.8125,248.7188 556.8125,250.8125 Q556.8125,252.9063 557.5,253.9844 Q558.1875,255.0469 559.5313,255.0469 Q560.1563,255.0469 560.75,254.7813 Q561.3438,254.5 561.9688,253.9219 L561.9688,256.6406 Z " fill="#000000"/><text fill="#000000" font-family="sans-serif" font-size="14" lengthAdjust="spacing" textLength="93.0986" x="573" y="255.8467">FromDecimal</text></g><!--class FromDegrees__class--><g class="entity" data-entity="FromDegrees__class" data-source-line="43" data-uid="ent0018" id="entity_FromDegrees__class"><rect fill="#F1F1F1" height="32" rx="2.5" ry="2.5" style="stroke:#181818;stroke-width:0.5;" width="126.5684" x="543" y="185"/><ellipse cx="558" cy="201" fill="#ADD1B2" rx="11" ry="11" style="stroke:#181818;stroke-width:1;"/><path d="M560.9688,206.6406 Q560.3906,206.9375 559.75,207.0781 Q559.1094,207.2344 558.4063,207.2344 Q555.9063,207.2344 554.5781,205.5938 Q553.2656,203.9375 553.2656,200.8125 Q553.2656,197.6875 554.5781,196.0313 Q555.9063,194.375 558.4063,194.375 Q559.1094,194.375 559.75,194.5313 Q560.4063,194.6875 560.9688,194.9844 L560.9688,197.7031 Q560.3438,197.125 559.75,196.8594 Q559.1563,196.5781 558.5313,196.5781 Q557.1875,196.5781 556.5,197.6563 Q555.8125,198.7188 555.8125,200.8125 Q555.8125,202.9063 556.5,203.9844 Q557.1875,205.0469 558.5313,205.0469 Q559.1563,205.0469 559.75,204.7813 Q560.3438,204.5 560.9688,203.9219 L560.9688,206.6406 Z " fill="#000000"/><text fill="#000000" font-family="sans-serif" font-size="14" lengthAdjust="spacing" textLength="94.5684" x="572" y="205.8467">FromDegrees</text></g><!--class FromRadian__class--><g class="entity" data-entity="FromRadian__class" data-source-line="47" data-uid="ent0020" id="entity_FromRadian__class"><rect fill="#F1F1F1" height="32" rx="2.5" ry="2.5" style="stroke:#181818;stroke-width:0.5;" width="116.5469" x="548" y="135"/><ellipse cx="563" cy="151" fill="#ADD1B2" rx="11" ry="11" style="stroke:#181818;stroke-width:1;"/><path d="M565.9688,156.6406 Q565.3906,156.9375 564.75,157.0781 Q564.1094,157.2344 563.4063,157.2344 Q560.9063,157.2344 559.5781,155.5938 Q558.2656,153.9375 558.2656,150.8125 Q558.2656,147.6875 559.5781,146.0313 Q560.9063,144.375 563.4063,144.375 Q564.1094,144.375 564.75,144.5313 Q565.4063,144.6875 565.9688,144.9844 L565.9688,147.7031 Q565.3438,147.125 564.75,146.8594 Q564.1563,146.5781 563.5313,146.5781 Q562.1875,146.5781 561.5,147.6563 Q560.8125,148.7188 560.8125,150.8125 Q560.8125,152.9063 561.5,153.9844 Q562.1875,155.0469 563.5313,155.0469 Q564.1563,155.0469 564.75,154.7813 Q565.3438,154.5 565.9688,153.9219 L565.9688,156.6406 Z " fill="#000000"/><text fill="#000000" font-family="sans-serif" font-size="14" lengthAdjust="spacing" textLength="84.5469" x="577" y="155.8467">FromRadian</text></g><!--class FromString__class--><g class="entity" data-entity="FromString__class" data-source-line="51" data-uid="ent0022" id="entity_FromString__class"><rect fill="#F1F1F1" height="32" rx="2.5" ry="2.5" style="stroke:#181818;stroke-width:0.5;" width="109.793" x="551.5" y="85"/><ellipse cx="566.5" cy="101" fill="#ADD1B2" rx="11" ry="11" style="stroke:#181818;stroke-width:1;"/><path d="M569.4688,106.6406 Q568.8906,106.9375 568.25,107.0781 Q567.6094,107.2344 566.9063,107.2344 Q564.4063,107.2344 563.0781,105.5938 Q561.7656,103.9375 561.7656,100.8125 Q561.7656,97.6875 563.0781,96.0313 Q564.4063,94.375 566.9063,94.375 Q567.6094,94.375 568.25,94.5313 Q568.9063,94.6875 569.4688,94.9844 L569.4688,97.7031 Q568.8438,97.125 568.25,96.8594 Q567.6563,96.5781 567.0313,96.5781 Q565.6875,96.5781 565,97.6563 Q564.3125,98.7188 564.3125,100.8125 Q564.3125,102.9063 565,103.9844 Q565.6875,105.0469 567.0313,105.0469 Q567.6563,105.0469 568.25,104.7813 Q568.8438,104.5 569.4688,103.9219 L569.4688,106.6406 Z " fill="#000000"/><text fill="#000000" font-family="sans-serif" font-size="14" lengthAdjust="spacing" textLength="77.793" x="580.5" y="105.8467">FromString</text></g><!--class AngleOverflowException__class--><g class="entity" data-entity="AngleOverflowException__class" data-source-line="57" data-uid="ent0026" id="entity_AngleOverflowException__class"><rect fill="#F1F1F1" height="32" rx="2.5" ry="2.5" style="stroke:#181818;stroke-width:0.5;" width="203.4932" x="143" y="260"/><ellipse cx="158" cy="276" fill="#ADD1B2" rx="11" ry="11" style="stroke:#181818;stroke-width:1;"/><path d="M160.9688,281.6406 Q160.3906,281.9375 159.75,282.0781 Q159.1094,282.2344 158.4063,282.2344 Q155.9063,282.2344 154.5781,280.5938 Q153.2656,278.9375 153.2656,275.8125 Q153.2656,272.6875 154.5781,271.0313 Q155.9063,269.375 158.4063,269.375 Q159.1094,269.375 159.75,269.5313 Q160.4063,269.6875 160.9688,269.9844 L160.9688,272.7031 Q160.3438,272.125 159.75,271.8594 Q159.1563,271.5781 158.5313,271.5781 Q157.1875,271.5781 156.5,272.6563 Q155.8125,273.7188 155.8125,275.8125 Q155.8125,277.9063 156.5,278.9844 Q157.1875,280.0469 158.5313,280.0469 Q159.1563,280.0469 159.75,279.7813 Q160.3438,279.5 160.9688,278.9219 L160.9688,281.6406 Z " fill="#000000"/><text fill="#000000" font-family="sans-serif" font-size="14" lengthAdjust="spacing" textLength="171.4932" x="172" y="280.8467">AngleOverflowException</text></g><!--class NoMatchException__class--><g class="entity" data-entity="NoMatchException__class" data-source-line="61" data-uid="ent0028" id="entity_NoMatchException__class"><rect fill="#F1F1F1" height="32" rx="2.5" ry="2.5" style="stroke:#181818;stroke-width:0.5;" width="162.9014" x="163" y="310"/><ellipse cx="178" cy="326" fill="#ADD1B2" rx="11" ry="11" style="stroke:#181818;stroke-width:1;"/><path d="M180.9688,331.6406 Q180.3906,331.9375 179.75,332.0781 Q179.1094,332.2344 178.4063,332.2344 Q175.9063,332.2344 174.5781,330.5938 Q173.2656,328.9375 173.2656,325.8125 Q173.2656,322.6875 174.5781,321.0313 Q175.9063,319.375 178.4063,319.375 Q179.1094,319.375 179.75,319.5313 Q180.4063,319.6875 180.9688,319.9844 L180.9688,322.7031 Q180.3438,322.125 179.75,321.8594 Q179.1563,321.5781 178.5313,321.5781 Q177.1875,321.5781 176.5,322.6563 Q175.8125,323.7188 175.8125,325.8125 Q175.8125,327.9063 176.5,328.9844 Q177.1875,330.0469 178.5313,330.0469 Q179.1563,330.0469 179.75,329.7813 Q180.3438,329.5 180.9688,328.9219 L180.9688,331.6406 Z " fill="#000000"/><text fill="#000000" font-family="sans-serif" font-size="14" lengthAdjust="spacing" textLength="130.9014" x="192" y="330.8467">NoMatchException</text></g><!--class RegExFailureException__class--><g class="entity" data-entity="RegExFailureException__class" data-source-line="65" data-uid="ent0030" id="entity_RegExFailureException__class"><rect fill="#F1F1F1" height="32" rx="2.5" ry="2.5" style="stroke:#181818;stroke-width:0.5;" width="193.1572" x="148" y="360"/><ellipse cx="163" cy="376" fill="#ADD1B2" rx="11" ry="11" style="stroke:#181818;stroke-width:1;"/><path d="M165.9688,381.6406 Q165.3906,381.9375 164.75,382.0781 Q164.1094,382.2344 163.4063,382.2344 Q160.9063,382.2344 159.5781,380.5938 Q158.2656,378.9375 158.2656,375.8125 Q158.2656,372.6875 159.5781,371.0313 Q160.9063,369.375 163.4063,369.375 Q164.1094,369.375 164.75,369.5313 Q165.4063,369.6875 165.9688,369.9844 L165.9688,372.7031 Q165.3438,372.125 164.75,371.8594 Q164.1563,371.5781 163.5313,371.5781 Q162.1875,371.5781 161.5,372.6563 Q160.8125,373.7188 160.8125,375.8125 Q160.8125,377.9063 161.5,378.9844 Q162.1875,380.0469 163.5313,380.0469 Q164.1563,380.0469 164.75,379.7813 Q165.3438,379.5 165.9688,378.9219 L165.9688,381.6406 Z " fill="#000000"/><text fill="#000000" font-family="sans-serif" font-size="14" lengthAdjust="spacing" textLength="161.1572" x="177" y="380.8467">RegExFailureException</text></g><!--class Sum__class--><g class="entity" data-entity="Sum__class" data-source-line="69" data-uid="ent0033" id="entity_Sum__class"><rect fill="#F1F1F1" height="32" rx="2.5" ry="2.5" style="stroke:#181818;stroke-width:0.5;" width="63.3975" x="575" y="360"/><ellipse cx="590" cy="376" fill="#ADD1B2" rx="11" ry="11" style="stroke:#181818;stroke-width:1;"/><path d="M592.9688,381.6406 Q592.3906,381.9375 591.75,382.0781 Q591.1094,382.2344 590.4063,382.2344 Q587.9063,382.2344 586.5781,380.5938 Q585.2656,378.9375 585.2656,375.8125 Q585.2656,372.6875 586.5781,371.0313 Q587.9063,369.375 590.4063,369.375 Q591.1094,369.375 591.75,369.5313 Q592.4063,369.6875 592.9688,369.9844 L592.9688,372.7031 Q592.3438,372.125 591.75,371.8594 Q591.1563,371.5781 590.5313,371.5781 Q589.1875,371.5781 588.5,372.6563 Q587.8125,373.7188 587.8125,375.8125 Q587.8125,377.9063 588.5,378.9844 Q589.1875,380.0469 590.5313,380.0469 Q591.1563,380.0469 591.75,379.7813 Q592.3438,379.5 592.9688,378.9219 L592.9688,381.6406 Z " fill="#000000"/><text fill="#000000" font-family="sans-serif" font-size="14" lengthAdjust="spacing" textLength="31.3975" x="604" y="380.8467">Sum</text></g><g class="link" data-entity-1="Angle__interface" data-entity-2="Angle__class" data-uid="lnk7" id="link_Angle__interface_Angle__class"><polygon fill="none" points="280.6125,200.8519,298.0986,208.2165,299.0202,196.2519,280.6125,200.8519" style="stroke:#516F42;stroke-width:1;"/><path d="M298.5594,202.2342 C322.5325,204.0808 335.28,209.2178 354,229 C385.1534,261.9209 346.5416,292.9396 374,329 C382.1082,339.6482 394.4709,347.2088 406.4107,352.4516" fill="none" style="stroke:#516F42;stroke-width:1;stroke-dasharray:7,7;"/></g><g class="link" data-entity-1="AngleBuilder__interface" data-entity-2="AngleBuilder__class" data-uid="lnk11" id="link_AngleBuilder__interface_AngleBuilder__class"><polygon fill="none" points="305.1048,158.6026,322.2009,166.8319,323.7193,154.9283,305.1048,158.6026" style="stroke:#516F42;stroke-width:1;"/><path d="M322.9601,160.8801 C347.2872,163.9831 357.5084,165.2868 381.8411,168.3904" fill="none" style="stroke:#516F42;stroke-width:1;stroke-dasharray:7,7;"/></g><g class="link" data-entity-1="AngleBuilder__class" data-entity-2="SumBuilder__class" data-uid="lnk13" id="link_AngleBuilder__class_SumBuilder__class"><polygon fill="none" points="497.7739,192.0067,509.3425,207.0455,516.0521,197.0966,497.7739,192.0067" style="stroke:#516F42;stroke-width:1;"/><path d="M512.6973,202.071 C542.6955,228.1546 513.747,249.0833 543,276 C546.698,279.4026 550.917,282.3675 555.3777,284.9457" fill="none" style="stroke:#516F42;stroke-width:1;"/></g><g class="link" data-entity-1="SumBuilder__class" data-entity-2="FromAngles__class" data-uid="lnk15" id="link_SumBuilder__class_FromAngles__class"><polygon fill="none" points="663.1105,301,681.1105,307,681.1105,295,663.1105,301" style="stroke:#516F42;stroke-width:1;"/><path d="M681.1105,301 C696.2449,301 694.6527,301 709.8443,301" fill="none" style="stroke:#516F42;stroke-width:1;"/></g><g class="link" data-entity-1="AngleBuilder__class" data-entity-2="FromDecimal__class" data-uid="lnk17" id="link_AngleBuilder__class_FromDecimal__class"><polygon fill="none" points="494.9015,192.0934,508.9097,204.8908,513.7865,193.9264,494.9015,192.0934" style="stroke:#516F42;stroke-width:1;"/><path d="M511.3481,199.4086 C531.0191,209.7469 523.6275,215.1128 543,226 C548.7052,229.2063 554.9052,232.2061 561.1103,234.9364" fill="none" style="stroke:#516F42;stroke-width:1;"/></g><g class="link" data-entity-1="AngleBuilder__class" data-entity-2="FromDegrees__class" data-uid="lnk19" id="link_AngleBuilder__class_FromDegrees__class"><polygon fill="none" points="503.3626,185.238,520.2369,193.9131,522.0671,182.0535,503.3626,185.238" style="stroke:#516F42;stroke-width:1;"/><path d="M521.152,187.9833 C534.0409,189.9724 529.9081,189.3346 542.8983,191.3392" fill="none" style="stroke:#516F42;stroke-width:1;"/></g><g class="link" data-entity-1="AngleBuilder__class" data-entity-2="FromRadian__class" data-uid="lnk21" id="link_AngleBuilder__class_FromRadian__class"><polygon fill="none" points="503.3626,166.762,522.0671,169.9465,520.2369,158.0869,503.3626,166.762" style="stroke:#516F42;stroke-width:1;"/><path d="M521.152,164.0167 C535.6633,161.7773 533.3583,162.133 547.7691,159.9091" fill="none" style="stroke:#516F42;stroke-width:1;"/></g><g class="link" data-entity-1="AngleBuilder__class" data-entity-2="FromString__class" data-uid="lnk23" id="link_AngleBuilder__class_FromString__class"><polygon fill="none" points="474.0993,159.7752,492.8388,156.8037,487.308,146.1543,474.0993,159.7752" style="stroke:#516F42;stroke-width:1;"/><path d="M490.0734,151.479 C509.5882,141.3438 519.5546,136.5568 543,126 C549.7134,122.9772 556.9076,119.9281 563.9395,117.0487" fill="none" style="stroke:#516F42;stroke-width:1;"/></g><g class="link" data-entity-1="Exception__class" data-entity-2="AngleOverflowException__class" data-uid="lnk27" id="link_Exception__class_AngleOverflowException__class"><polygon fill="none" points="104.1828,305.9665,123.149,305.432,119.0351,294.1593,104.1828,305.9665" style="stroke:#516F42;stroke-width:1;"/><path d="M121.092,299.7957 C132.0702,296.4941 141.6334,294.7066 153.2375,292.035" fill="none" style="stroke:#516F42;stroke-width:1;"/></g><g class="link" data-entity-1="Exception__class" data-entity-2="NoMatchException__class" data-uid="lnk29" id="link_Exception__class_NoMatchException__class"><polygon fill="none" points="107.3446,326,125.3446,332,125.3446,320,107.3446,326" style="stroke:#516F42;stroke-width:1;"/><path d="M125.3446,326 C142.4543,326 144.068,326 162.9805,326" fill="none" style="stroke:#516F42;stroke-width:1;"/></g><g class="link" data-entity-1="Exception__class" data-entity-2="RegExFailureException__class" data-uid="lnk31" id="link_Exception__class_RegExFailureException__class"><polygon fill="none" points="104.1828,346.0335,119.0351,357.8407,123.149,346.568,104.1828,346.0335" style="stroke:#516F42;stroke-width:1;"/><path d="M121.092,352.2043 C132.0702,355.5059 141.6334,357.2934 153.2375,359.965" fill="none" style="stroke:#516F42;stroke-width:1;"/></g><g class="link" data-entity-1="Angle__class" data-entity-2="Sum__class" data-uid="lnk34" id="link_Angle__class_Sum__class"><polygon fill="none" points="478.6516,365.8208,496.114,373.2414,497.0738,361.2798,478.6516,365.8208" style="stroke:#516F42;stroke-width:1;"/><path d="M496.5939,367.2606 C525.2557,369.5606 547.395,371.3373 574.7849,373.5352" fill="none" style="stroke:#516F42;stroke-width:1;"/></g><!--SRC=[pPRDJjmm4CVlUOefVO9MfIU412oW7YWIUus4XcIIMDYUQEomkqAyUxtPV138gjcoL9jJvYFp_ytOYlsb5CmDWiOLLnwS8OyM8m1mZygMA6ZWJ8GN5wnPuElnjv_PZ-_3E2PUFIc_EcT9IQOaOlAO2rSsRPAp-XbFdYaqRDF9nTlyAHgkm9GNokQGeNOKHTj3VKGhItvL4h3uWgD2fGHaIhy2G-Q1n4MQCW-UGLHUU4YLK61Z6pdoOD6GAp6XEQtB-O0Mnr7KkU469U4BjaxbMd4SNxDL79P5Ld7yotgIB6GvU5vt0gfrmD6PpJKT0Jget-xl-rYJ_1AzJD9fqY7HwDn8uOr_hMvAJOQiTw67QTnn_8vkDxW9GpYlb0vxfKTk71yOIHmtDLfDV71UmfORJccxyXvcDjB5lfkOL-Pr2xtPDq1BJpRz6tmhz1QzgV91xXRtIjZKzLsDsvl_ZZlIyXvXPvGeWxgZRUp3dUwCSg5NustimmM-mrIXxNWtvk7Yphs48wR3tPYVXji8NouJAjS7KgtRMUq79oUrhbZKS7hwFBdDhf0REq1kdy8_I_DYA3uU6Xl0- -2kox2LxpVVe4-A8TbRvtzckgFySdc5IbT2Gx3HoEVGtPOKRYWZTE4lsHuGksxMuHsY9_e3]--></g></svg>