<svg xmlns="http://www.w3.org/2000/svg" xmlns:xlink="http://www.w3.org/1999/xlink" contentStyleType="text/css" data-diagram-type="CLASS" height="388px" preserveAspectRatio="none" style="width:958px;height:388px;background:#FFFFFF;" version="1.1" viewBox="0 0 958 388" width="958px" zoomAndPan="magnify"><defs/><g><!--cluster MarcoConsiglio--><g class="cluster" data-entity="MarcoConsiglio" data-source-line="15" data-uid="ent0004" id="cluster_MarcoConsiglio"><path d="M121.5,4 L242.9287,4 A3.75,3.75 0 0 1 245.4287,6.5 L252.4287,26.2969 L948.5,26.2969 A2.5,2.5 0 0 1 951,28.7969 L951,378.5 A2.5,2.5 0 0 1 948.5,381 L121.5,381 A2.5,2.5 0 0 1 119,378.5 L119,6.5 A2.5,2.5 0 0 1 121.5,4" fill="none" style="stroke:#000000;stroke-width:1.5;"/><line style="stroke:#000000;stroke-width:1.5;" x1="119" x2="252.4287" y1="26.2969" y2="26.2969"/><text fill="#000000" font-family="sans-serif" font-size="14" font-weight="bold" lengthAdjust="spacing" textLength="120.4287" x="123" y="18.9951">MarcoConsiglio</text></g><!--cluster Goniometry--><g class="cluster" data-entity="Goniometry" data-source-line="15" data-uid="ent0005" id="cluster_Goniometry"><path d="M129.5,31 L222.7988,31 A3.75,3.75 0 0 1 225.2988,33.5 L232.2988,53.2969 L940.5,53.2969 A2.5,2.5 0 0 1 943,55.7969 L943,370.5 A2.5,2.5 0 0 1 940.5,373 L129.5,373 A2.5,2.5 0 0 1 127,370.5 L127,33.5 A2.5,2.5 0 0 1 129.5,31" fill="none" style="stroke:#000000;stroke-width:1.5;"/><line style="stroke:#000000;stroke-width:1.5;" x1="127" x2="232.2988" y1="53.2969" y2="53.2969"/><text fill="#000000" font-family="sans-serif" font-size="14" font-weight="bold" lengthAdjust="spacing" textLength="92.2988" x="131" y="45.9951">Goniometry</text></g><!--cluster Interfaces--><g class="cluster" data-entity="Interfaces" data-source-line="14" data-uid="ent0002" id="cluster_Interfaces"><path d="M178.5,73 L259.4326,73 A3.75,3.75 0 0 1 261.9326,75.5 L268.9326,95.2969 L310.5,95.2969 A2.5,2.5 0 0 1 313,97.7969 L313,187.5 A2.5,2.5 0 0 1 310.5,190 L178.5,190 A2.5,2.5 0 0 1 176,187.5 L176,75.5 A2.5,2.5 0 0 1 178.5,73" fill="none" style="stroke:#000000;stroke-width:1.5;"/><line style="stroke:#000000;stroke-width:1.5;" x1="176" x2="268.9326" y1="95.2969" y2="95.2969"/><text fill="#000000" font-family="sans-serif" font-size="14" font-weight="bold" lengthAdjust="spacing" textLength="79.9326" x="180" y="87.9951">Interfaces</text></g><!--cluster Builders--><g class="cluster" data-entity="Builders" data-source-line="26" data-uid="ent0009" id="cluster_Builders"><path d="M376.5,58 L442.4893,58 A3.75,3.75 0 0 1 444.9893,60.5 L451.9893,80.2969 L932.5,80.2969 A2.5,2.5 0 0 1 935,82.7969 L935,322.5 A2.5,2.5 0 0 1 932.5,325 L376.5,325 A2.5,2.5 0 0 1 374,322.5 L374,60.5 A2.5,2.5 0 0 1 376.5,58" fill="none" style="stroke:#000000;stroke-width:1.5;"/><line style="stroke:#000000;stroke-width:1.5;" x1="374" x2="451.9893" y1="80.2969" y2="80.2969"/><text fill="#000000" font-family="sans-serif" font-size="14" font-weight="bold" lengthAdjust="spacing" textLength="64.9893" x="378" y="72.9951">Builders</text></g><!--cluster Exceptions--><g class="cluster" data-entity="Exceptions" data-source-line="60" data-uid="ent0027" id="cluster_Exceptions"><path d="M137.5,198 L224.3184,198 A3.75,3.75 0 0 1 226.8184,200.5 L233.8184,220.2969 L351.5,220.2969 A2.5,2.5 0 0 1 354,222.7969 L354,362.5 A2.5,2.5 0 0 1 351.5,365 L137.5,365 A2.5,2.5 0 0 1 135,362.5 L135,200.5 A2.5,2.5 0 0 1 137.5,198" fill="none" style="stroke:#000000;stroke-width:1.5;"/><line style="stroke:#000000;stroke-width:1.5;" x1="135" x2="233.8184" y1="220.2969" y2="220.2969"/><text fill="#000000" font-family="sans-serif" font-size="14" font-weight="bold" lengthAdjust="spacing" textLength="85.8184" x="139" y="212.9951">Exceptions</text></g><!--class Exception__class--><g class="entity" data-entity="Exception__class" data-source-line="58" data-uid="ent0026" id="entity_Exception__class"><rect fill="#F1F1F1" height="40.2656" rx="2.5" ry="2.5" style="stroke:#181818;stroke-width:0.5;" width="101.1455" x="6" y="271"/><ellipse cx="21" cy="291.1328" fill="#ADD1B2" rx="11" ry="11" style="stroke:#181818;stroke-width:1;"/><path d="M23.9688,296.7734 Q23.3906,297.0703 22.75,297.2109 Q22.1094,297.3672 21.4063,297.3672 Q18.9063,297.3672 17.5781,295.7266 Q16.2656,294.0703 16.2656,290.9453 Q16.2656,287.8203 17.5781,286.1641 Q18.9063,284.5078 21.4063,284.5078 Q22.1094,284.5078 22.75,284.6641 Q23.4063,284.8203 23.9688,285.1172 L23.9688,287.8359 Q23.3438,287.2578 22.75,286.9922 Q22.1563,286.7109 21.5313,286.7109 Q20.1875,286.7109 19.5,287.7891 Q18.8125,288.8516 18.8125,290.9453 Q18.8125,293.0391 19.5,294.1172 Q20.1875,295.1797 21.5313,295.1797 Q22.1563,295.1797 22.75,294.9141 Q23.3438,294.6328 23.9688,294.0547 L23.9688,296.7734 Z " fill="#000000"/><text fill="#000000" font-family="sans-serif" font-size="12" font-style="italic" lengthAdjust="spacing" textLength="64.4824" x="37.3315" y="287.1387">&#171;external&#187;</text><text fill="#000000" font-family="sans-serif" font-size="14" lengthAdjust="spacing" textLength="69.1455" x="35" y="302.9639">Exception</text></g><!--class Angle__class--><g class="entity" data-entity="Angle__class" data-source-line="19" data-uid="ent0006" id="entity_Angle__class"><rect fill="#F1F1F1" height="32" rx="2.5" ry="2.5" style="stroke:#181818;stroke-width:0.5;" width="71.8398" x="406.5" y="333"/><ellipse cx="421.5" cy="349" fill="#ADD1B2" rx="11" ry="11" style="stroke:#181818;stroke-width:1;"/><path d="M424.4688,354.6406 Q423.8906,354.9375 423.25,355.0781 Q422.6094,355.2344 421.9063,355.2344 Q419.4063,355.2344 418.0781,353.5938 Q416.7656,351.9375 416.7656,348.8125 Q416.7656,345.6875 418.0781,344.0313 Q419.4063,342.375 421.9063,342.375 Q422.6094,342.375 423.25,342.5313 Q423.9063,342.6875 424.4688,342.9844 L424.4688,345.7031 Q423.8438,345.125 423.25,344.8594 Q422.6563,344.5781 422.0313,344.5781 Q420.6875,344.5781 420,345.6563 Q419.3125,346.7188 419.3125,348.8125 Q419.3125,350.9063 420,351.9844 Q420.6875,353.0469 422.0313,353.0469 Q422.6563,353.0469 423.25,352.7813 Q423.8438,352.5 424.4688,351.9219 L424.4688,354.6406 Z " fill="#000000"/><text fill="#000000" font-family="sans-serif" font-size="14" lengthAdjust="spacing" textLength="39.8398" x="435.5" y="353.8467">Angle</text></g><!--class Angle__interface--><g class="entity" data-entity="Angle__interface" data-source-line="15" data-uid="ent0003" id="entity_Angle__interface"><rect fill="#F1F1F1" height="32" rx="2.5" ry="2.5" style="stroke:#181818;stroke-width:0.5;" width="71.8398" x="208.5" y="150"/><ellipse cx="223.5" cy="166" fill="#B4A7E5" rx="11" ry="11" style="stroke:#181818;stroke-width:1;"/><path d="M219.4219,161.7656 L219.4219,159.6094 L226.8125,159.6094 L226.8125,161.7656 L224.3438,161.7656 L224.3438,169.8438 L226.8125,169.8438 L226.8125,172 L219.4219,172 L219.4219,169.8438 L221.8906,169.8438 L221.8906,161.7656 L219.4219,161.7656 Z " fill="#000000"/><text fill="#000000" font-family="sans-serif" font-size="14" font-style="italic" lengthAdjust="spacing" textLength="39.8398" x="237.5" y="170.8467">Angle</text></g><!--class AngleBuilder__interface--><g class="entity" data-entity="AngleBuilder__interface" data-source-line="23" data-uid="ent0008" id="entity_AngleBuilder__interface"><rect fill="#F1F1F1" height="32" rx="2.5" ry="2.5" style="stroke:#181818;stroke-width:0.5;" width="121.3525" x="184" y="100"/><ellipse cx="199" cy="116" fill="#B4A7E5" rx="11" ry="11" style="stroke:#181818;stroke-width:1;"/><path d="M194.9219,111.7656 L194.9219,109.6094 L202.3125,109.6094 L202.3125,111.7656 L199.8438,111.7656 L199.8438,119.8438 L202.3125,119.8438 L202.3125,122 L194.9219,122 L194.9219,119.8438 L197.3906,119.8438 L197.3906,111.7656 L194.9219,111.7656 Z " fill="#000000"/><text fill="#000000" font-family="sans-serif" font-size="14" font-style="italic" lengthAdjust="spacing" textLength="89.3525" x="213" y="120.8467">AngleBuilder</text></g><!--class AngleBuilder__class--><g class="entity" data-entity="AngleBuilder__class" data-source-line="27" data-uid="ent0010" id="entity_AngleBuilder__class"><rect fill="#F1F1F1" height="32" rx="2.5" ry="2.5" style="stroke:#181818;stroke-width:0.5;" width="121.3525" x="382" y="160"/><ellipse cx="397" cy="176" fill="#A9DCDF" rx="11" ry="11" style="stroke:#181818;stroke-width:1;"/><path d="M397.1094,171.3438 L395.9531,176.4219 L398.2813,176.4219 L397.1094,171.3438 Z M395.625,169.1094 L398.6094,169.1094 L401.9688,181.5 L399.5156,181.5 L398.75,178.4375 L395.4688,178.4375 L394.7188,181.5 L392.2813,181.5 L395.625,169.1094 Z " fill="#000000"/><text fill="#000000" font-family="sans-serif" font-size="14" font-style="italic" lengthAdjust="spacing" textLength="89.3525" x="411" y="180.8467">AngleBuilder</text></g><!--class SumBuilder__class--><g class="entity" data-entity="SumBuilder__class" data-source-line="31" data-uid="ent0012" id="entity_SumBuilder__class"><rect fill="#F1F1F1" height="32" rx="2.5" ry="2.5" style="stroke:#181818;stroke-width:0.5;" width="112.9102" x="546" y="285"/><ellipse cx="561" cy="301" fill="#A9DCDF" rx="11" ry="11" style="stroke:#181818;stroke-width:1;"/><path d="M561.1094,296.3438 L559.9531,301.4219 L562.2813,301.4219 L561.1094,296.3438 Z M559.625,294.1094 L562.6094,294.1094 L565.9688,306.5 L563.5156,306.5 L562.75,303.4375 L559.4688,303.4375 L558.7188,306.5 L556.2813,306.5 L559.625,294.1094 Z " fill="#000000"/><text fill="#000000" font-family="sans-serif" font-size="14" font-style="italic" lengthAdjust="spacing" textLength="80.9102" x="575" y="305.8467">SumBuilder</text></g><!--class FromAnglesToAbsoluteSum__class--><g class="entity" data-entity="FromAnglesToAbsoluteSum__class" data-source-line="35" data-uid="ent0014" id="entity_FromAnglesToAbsoluteSum__class"><rect fill="#F1F1F1" height="32" rx="2.5" ry="2.5" style="stroke:#181818;stroke-width:0.5;" width="224.8486" x="702" y="285"/><ellipse cx="717" cy="301" fill="#ADD1B2" rx="11" ry="11" style="stroke:#181818;stroke-width:1;"/><path d="M719.9688,306.6406 Q719.3906,306.9375 718.75,307.0781 Q718.1094,307.2344 717.4063,307.2344 Q714.9063,307.2344 713.5781,305.5938 Q712.2656,303.9375 712.2656,300.8125 Q712.2656,297.6875 713.5781,296.0313 Q714.9063,294.375 717.4063,294.375 Q718.1094,294.375 718.75,294.5313 Q719.4063,294.6875 719.9688,294.9844 L719.9688,297.7031 Q719.3438,297.125 718.75,296.8594 Q718.1563,296.5781 717.5313,296.5781 Q716.1875,296.5781 715.5,297.6563 Q714.8125,298.7188 714.8125,300.8125 Q714.8125,302.9063 715.5,303.9844 Q716.1875,305.0469 717.5313,305.0469 Q718.1563,305.0469 718.75,304.7813 Q719.3438,304.5 719.9688,303.9219 L719.9688,306.6406 Z " fill="#000000"/><text fill="#000000" font-family="sans-serif" font-size="14" lengthAdjust="spacing" textLength="192.8486" x="731" y="305.8467">FromAnglesToAbsoluteSum</text></g><!--class FromAnglesToRelativeSum__class--><g class="entity" data-entity="FromAnglesToRelativeSum__class" data-source-line="39" data-uid="ent0016" id="entity_FromAnglesToRelativeSum__class"><rect fill="#F1F1F1" height="32" rx="2.5" ry="2.5" style="stroke:#181818;stroke-width:0.5;" width="220.7471" x="704" y="235"/><ellipse cx="719" cy="251" fill="#ADD1B2" rx="11" ry="11" style="stroke:#181818;stroke-width:1;"/><path d="M721.9688,256.6406 Q721.3906,256.9375 720.75,257.0781 Q720.1094,257.2344 719.4063,257.2344 Q716.9063,257.2344 715.5781,255.5938 Q714.2656,253.9375 714.2656,250.8125 Q714.2656,247.6875 715.5781,246.0313 Q716.9063,244.375 719.4063,244.375 Q720.1094,244.375 720.75,244.5313 Q721.4063,244.6875 721.9688,244.9844 L721.9688,247.7031 Q721.3438,247.125 720.75,246.8594 Q720.1563,246.5781 719.5313,246.5781 Q718.1875,246.5781 717.5,247.6563 Q716.8125,248.7188 716.8125,250.8125 Q716.8125,252.9063 717.5,253.9844 Q718.1875,255.0469 719.5313,255.0469 Q720.1563,255.0469 720.75,254.7813 Q721.3438,254.5 721.9688,253.9219 L721.9688,256.6406 Z " fill="#000000"/><text fill="#000000" font-family="sans-serif" font-size="14" lengthAdjust="spacing" textLength="188.7471" x="733" y="255.8467">FromAnglesToRelativeSum</text></g><!--class FromDecimal__class--><g class="entity" data-entity="FromDecimal__class" data-source-line="43" data-uid="ent0018" id="entity_FromDecimal__class"><rect fill="#F1F1F1" height="32" rx="2.5" ry="2.5" style="stroke:#181818;stroke-width:0.5;" width="125.0986" x="540" y="235"/><ellipse cx="555" cy="251" fill="#ADD1B2" rx="11" ry="11" style="stroke:#181818;stroke-width:1;"/><path d="M557.9688,256.6406 Q557.3906,256.9375 556.75,257.0781 Q556.1094,257.2344 555.4063,257.2344 Q552.9063,257.2344 551.5781,255.5938 Q550.2656,253.9375 550.2656,250.8125 Q550.2656,247.6875 551.5781,246.0313 Q552.9063,244.375 555.4063,244.375 Q556.1094,244.375 556.75,244.5313 Q557.4063,244.6875 557.9688,244.9844 L557.9688,247.7031 Q557.3438,247.125 556.75,246.8594 Q556.1563,246.5781 555.5313,246.5781 Q554.1875,246.5781 553.5,247.6563 Q552.8125,248.7188 552.8125,250.8125 Q552.8125,252.9063 553.5,253.9844 Q554.1875,255.0469 555.5313,255.0469 Q556.1563,255.0469 556.75,254.7813 Q557.3438,254.5 557.9688,253.9219 L557.9688,256.6406 Z " fill="#000000"/><text fill="#000000" font-family="sans-serif" font-size="14" lengthAdjust="spacing" textLength="93.0986" x="569" y="255.8467">FromDecimal</text></g><!--class FromDegrees__class--><g class="entity" data-entity="FromDegrees__class" data-source-line="47" data-uid="ent0020" id="entity_FromDegrees__class"><rect fill="#F1F1F1" height="32" rx="2.5" ry="2.5" style="stroke:#181818;stroke-width:0.5;" width="126.5684" x="539" y="185"/><ellipse cx="554" cy="201" fill="#ADD1B2" rx="11" ry="11" style="stroke:#181818;stroke-width:1;"/><path d="M556.9688,206.6406 Q556.3906,206.9375 555.75,207.0781 Q555.1094,207.2344 554.4063,207.2344 Q551.9063,207.2344 550.5781,205.5938 Q549.2656,203.9375 549.2656,200.8125 Q549.2656,197.6875 550.5781,196.0313 Q551.9063,194.375 554.4063,194.375 Q555.1094,194.375 555.75,194.5313 Q556.4063,194.6875 556.9688,194.9844 L556.9688,197.7031 Q556.3438,197.125 555.75,196.8594 Q555.1563,196.5781 554.5313,196.5781 Q553.1875,196.5781 552.5,197.6563 Q551.8125,198.7188 551.8125,200.8125 Q551.8125,202.9063 552.5,203.9844 Q553.1875,205.0469 554.5313,205.0469 Q555.1563,205.0469 555.75,204.7813 Q556.3438,204.5 556.9688,203.9219 L556.9688,206.6406 Z " fill="#000000"/><text fill="#000000" font-family="sans-serif" font-size="14" lengthAdjust="spacing" textLength="94.5684" x="568" y="205.8467">FromDegrees</text></g><!--class FromRadian__class--><g class="entity" data-entity="FromRadian__class" data-source-line="51" data-uid="ent0022" id="entity_FromRadian__class"><rect fill="#F1F1F1" height="32" rx="2.5" ry="2.5" style="stroke:#181818;stroke-width:0.5;" width="116.5469" x="544" y="135"/><ellipse cx="559" cy="151" fill="#ADD1B2" rx="11" ry="11" style="stroke:#181818;stroke-width:1;"/><path d="M561.9688,156.6406 Q561.3906,156.9375 560.75,157.0781 Q560.1094,157.2344 559.4063,157.2344 Q556.9063,157.2344 555.5781,155.5938 Q554.2656,153.9375 554.2656,150.8125 Q554.2656,147.6875 555.5781,146.0313 Q556.9063,144.375 559.4063,144.375 Q560.1094,144.375 560.75,144.5313 Q561.4063,144.6875 561.9688,144.9844 L561.9688,147.7031 Q561.3438,147.125 560.75,146.8594 Q560.1563,146.5781 559.5313,146.5781 Q558.1875,146.5781 557.5,147.6563 Q556.8125,148.7188 556.8125,150.8125 Q556.8125,152.9063 557.5,153.9844 Q558.1875,155.0469 559.5313,155.0469 Q560.1563,155.0469 560.75,154.7813 Q561.3438,154.5 561.9688,153.9219 L561.9688,156.6406 Z " fill="#000000"/><text fill="#000000" font-family="sans-serif" font-size="14" lengthAdjust="spacing" textLength="84.5469" x="573" y="155.8467">FromRadian</text></g><!--class FromString__class--><g class="entity" data-entity="FromString__class" data-source-line="55" data-uid="ent0024" id="entity_FromString__class"><rect fill="#F1F1F1" height="32" rx="2.5" ry="2.5" style="stroke:#181818;stroke-width:0.5;" width="109.793" x="547.5" y="85"/><ellipse cx="562.5" cy="101" fill="#ADD1B2" rx="11" ry="11" style="stroke:#181818;stroke-width:1;"/><path d="M565.4688,106.6406 Q564.8906,106.9375 564.25,107.0781 Q563.6094,107.2344 562.9063,107.2344 Q560.4063,107.2344 559.0781,105.5938 Q557.7656,103.9375 557.7656,100.8125 Q557.7656,97.6875 559.0781,96.0313 Q560.4063,94.375 562.9063,94.375 Q563.6094,94.375 564.25,94.5313 Q564.9063,94.6875 565.4688,94.9844 L565.4688,97.7031 Q564.8438,97.125 564.25,96.8594 Q563.6563,96.5781 563.0313,96.5781 Q561.6875,96.5781 561,97.6563 Q560.3125,98.7188 560.3125,100.8125 Q560.3125,102.9063 561,103.9844 Q561.6875,105.0469 563.0313,105.0469 Q563.6563,105.0469 564.25,104.7813 Q564.8438,104.5 565.4688,103.9219 L565.4688,106.6406 Z " fill="#000000"/><text fill="#000000" font-family="sans-serif" font-size="14" lengthAdjust="spacing" textLength="77.793" x="576.5" y="105.8467">FromString</text></g><!--class AngleOverflowException__class--><g class="entity" data-entity="AngleOverflowException__class" data-source-line="61" data-uid="ent0028" id="entity_AngleOverflowException__class"><rect fill="#F1F1F1" height="32" rx="2.5" ry="2.5" style="stroke:#181818;stroke-width:0.5;" width="203.4932" x="143" y="225"/><ellipse cx="158" cy="241" fill="#ADD1B2" rx="11" ry="11" style="stroke:#181818;stroke-width:1;"/><path d="M160.9688,246.6406 Q160.3906,246.9375 159.75,247.0781 Q159.1094,247.2344 158.4063,247.2344 Q155.9063,247.2344 154.5781,245.5938 Q153.2656,243.9375 153.2656,240.8125 Q153.2656,237.6875 154.5781,236.0313 Q155.9063,234.375 158.4063,234.375 Q159.1094,234.375 159.75,234.5313 Q160.4063,234.6875 160.9688,234.9844 L160.9688,237.7031 Q160.3438,237.125 159.75,236.8594 Q159.1563,236.5781 158.5313,236.5781 Q157.1875,236.5781 156.5,237.6563 Q155.8125,238.7188 155.8125,240.8125 Q155.8125,242.9063 156.5,243.9844 Q157.1875,245.0469 158.5313,245.0469 Q159.1563,245.0469 159.75,244.7813 Q160.3438,244.5 160.9688,243.9219 L160.9688,246.6406 Z " fill="#000000"/><text fill="#000000" font-family="sans-serif" font-size="14" lengthAdjust="spacing" textLength="171.4932" x="172" y="245.8467">AngleOverflowException</text></g><!--class NoMatchException__class--><g class="entity" data-entity="NoMatchException__class" data-source-line="65" data-uid="ent0030" id="entity_NoMatchException__class"><rect fill="#F1F1F1" height="32" rx="2.5" ry="2.5" style="stroke:#181818;stroke-width:0.5;" width="162.9014" x="163" y="275"/><ellipse cx="178" cy="291" fill="#ADD1B2" rx="11" ry="11" style="stroke:#181818;stroke-width:1;"/><path d="M180.9688,296.6406 Q180.3906,296.9375 179.75,297.0781 Q179.1094,297.2344 178.4063,297.2344 Q175.9063,297.2344 174.5781,295.5938 Q173.2656,293.9375 173.2656,290.8125 Q173.2656,287.6875 174.5781,286.0313 Q175.9063,284.375 178.4063,284.375 Q179.1094,284.375 179.75,284.5313 Q180.4063,284.6875 180.9688,284.9844 L180.9688,287.7031 Q180.3438,287.125 179.75,286.8594 Q179.1563,286.5781 178.5313,286.5781 Q177.1875,286.5781 176.5,287.6563 Q175.8125,288.7188 175.8125,290.8125 Q175.8125,292.9063 176.5,293.9844 Q177.1875,295.0469 178.5313,295.0469 Q179.1563,295.0469 179.75,294.7813 Q180.3438,294.5 180.9688,293.9219 L180.9688,296.6406 Z " fill="#000000"/><text fill="#000000" font-family="sans-serif" font-size="14" lengthAdjust="spacing" textLength="130.9014" x="192" y="295.8467">NoMatchException</text></g><!--class RegExFailureException__class--><g class="entity" data-entity="RegExFailureException__class" data-source-line="69" data-uid="ent0032" id="entity_RegExFailureException__class"><rect fill="#F1F1F1" height="32" rx="2.5" ry="2.5" style="stroke:#181818;stroke-width:0.5;" width="193.1572" x="148" y="325"/><ellipse cx="163" cy="341" fill="#ADD1B2" rx="11" ry="11" style="stroke:#181818;stroke-width:1;"/><path d="M165.9688,346.6406 Q165.3906,346.9375 164.75,347.0781 Q164.1094,347.2344 163.4063,347.2344 Q160.9063,347.2344 159.5781,345.5938 Q158.2656,343.9375 158.2656,340.8125 Q158.2656,337.6875 159.5781,336.0313 Q160.9063,334.375 163.4063,334.375 Q164.1094,334.375 164.75,334.5313 Q165.4063,334.6875 165.9688,334.9844 L165.9688,337.7031 Q165.3438,337.125 164.75,336.8594 Q164.1563,336.5781 163.5313,336.5781 Q162.1875,336.5781 161.5,337.6563 Q160.8125,338.7188 160.8125,340.8125 Q160.8125,342.9063 161.5,343.9844 Q162.1875,345.0469 163.5313,345.0469 Q164.1563,345.0469 164.75,344.7813 Q165.3438,344.5 165.9688,343.9219 L165.9688,346.6406 Z " fill="#000000"/><text fill="#000000" font-family="sans-serif" font-size="14" lengthAdjust="spacing" textLength="161.1572" x="177" y="345.8467">RegExFailureException</text></g><g class="link" data-entity-1="Angle__interface" data-entity-2="Angle__class" data-uid="lnk7" id="link_Angle__interface_Angle__class"><polygon fill="none" points="280.6645,165.5475,298.2038,172.7845,299.0382,160.8135,280.6645,165.5475" style="stroke:#516F42;stroke-width:1;"/><path d="M298.621,166.799 C322.7787,168.4827 335.7185,173.6809 354,194 C394.569,239.0907 334.2378,283.1963 374,329 C382.1726,338.4143 394.5484,343.5017 406.4806,346.2155" fill="none" style="stroke:#516F42;stroke-width:1;stroke-dasharray:7,7;"/></g><g class="link" data-entity-1="AngleBuilder__interface" data-entity-2="AngleBuilder__class" data-uid="lnk11" id="link_AngleBuilder__interface_AngleBuilder__class"><polygon fill="none" points="305.0702,127.9892,321.2614,137.8808,323.9582,126.1878,305.0702,127.9892" style="stroke:#516F42;stroke-width:1;"/><path d="M322.6098,132.0343 C338.6306,135.7291 338.3201,136.0897 354,141 C371.0187,146.3295 389.4078,153.4658 404.9149,159.904" fill="none" style="stroke:#516F42;stroke-width:1;stroke-dasharray:7,7;"/></g><g class="link" data-entity-1="AngleBuilder__class" data-entity-2="SumBuilder__class" data-uid="lnk13" id="link_AngleBuilder__class_SumBuilder__class"><polygon fill="none" points="498.1199,192.1113,509.3856,207.3784,516.2927,197.5655,498.1199,192.1113" style="stroke:#516F42;stroke-width:1;"/><path d="M512.8392,202.472 C541.734,228.6499 510.8526,249.02 539,276 C542.5434,279.3965 546.6065,282.3514 550.9232,284.9182" fill="none" style="stroke:#516F42;stroke-width:1;"/></g><g class="link" data-entity-1="SumBuilder__class" data-entity-2="FromAnglesToAbsoluteSum__class" data-uid="lnk15" id="link_SumBuilder__class_FromAnglesToAbsoluteSum__class"><polygon fill="none" points="659.2248,301,677.2248,307,677.2248,295,659.2248,301" style="stroke:#516F42;stroke-width:1;"/><path d="M677.2248,301 C690.4695,301 687.067,301 701.8409,301" fill="none" style="stroke:#516F42;stroke-width:1;"/></g><g class="link" data-entity-1="SumBuilder__class" data-entity-2="FromAnglesToRelativeSum__class" data-uid="lnk17" id="link_SumBuilder__class_FromAnglesToRelativeSum__class"><polygon fill="none" points="659.1713,286.581,678.0935,287.9776,675.147,276.3449,659.1713,286.581" style="stroke:#516F42;stroke-width:1;"/><path d="M676.6202,282.1612 C690.5847,278.6241 688.1006,279.3214 702,276 C714.4453,273.0261 727.6974,269.9637 740.5597,267.0462" fill="none" style="stroke:#516F42;stroke-width:1;"/></g><g class="link" data-entity-1="AngleBuilder__class" data-entity-2="FromDecimal__class" data-uid="lnk19" id="link_AngleBuilder__class_FromDecimal__class"><polygon fill="none" points="495.2936,192.0764,509.0746,205.1181,514.1434,194.2411,495.2936,192.0764" style="stroke:#516F42;stroke-width:1;"/><path d="M511.609,199.6796 C529.7909,209.838 521.1108,215.3344 539,226 C544.4205,229.2317 550.3351,232.2124 556.2942,234.9042" fill="none" style="stroke:#516F42;stroke-width:1;"/></g><g class="link" data-entity-1="AngleBuilder__class" data-entity-2="FromDegrees__class" data-uid="lnk21" id="link_AngleBuilder__class_FromDegrees__class"><polygon fill="none" points="503.233,185.4514,520.0741,194.1908,521.9495,182.3383,503.233,185.4514" style="stroke:#516F42;stroke-width:1;"/><path d="M521.0118,188.2645 C532.6345,190.1036 527.0709,189.2232 538.7865,191.077" fill="none" style="stroke:#516F42;stroke-width:1;"/></g><g class="link" data-entity-1="AngleBuilder__class" data-entity-2="FromRadian__class" data-uid="lnk23" id="link_AngleBuilder__class_FromRadian__class"><polygon fill="none" points="503.233,166.5486,521.9495,169.6617,520.0741,157.8092,503.233,166.5486" style="stroke:#516F42;stroke-width:1;"/><path d="M521.0118,163.7355 C534.2949,161.6337 530.573,162.2226 543.7737,160.1339" fill="none" style="stroke:#516F42;stroke-width:1;"/></g><g class="link" data-entity-1="AngleBuilder__class" data-entity-2="FromString__class" data-uid="lnk25" id="link_AngleBuilder__class_FromString__class"><polygon fill="none" points="472.3741,159.9013,491.052,156.5639,485.314,146.0247,472.3741,159.9013" style="stroke:#516F42;stroke-width:1;"/><path d="M488.183,151.2943 C506.9308,141.0872 516.2199,136.4864 539,126 C545.5818,122.9702 552.6414,119.9416 559.5615,117.0913" fill="none" style="stroke:#516F42;stroke-width:1;"/></g><g class="link" data-entity-1="Exception__class" data-entity-2="AngleOverflowException__class" data-uid="lnk29" id="link_Exception__class_AngleOverflowException__class"><polygon fill="none" points="104.1828,270.9665,123.149,270.432,119.0351,259.1593,104.1828,270.9665" style="stroke:#516F42;stroke-width:1;"/><path d="M121.092,264.7957 C132.0702,261.4941 141.6334,259.7066 153.2375,257.035" fill="none" style="stroke:#516F42;stroke-width:1;"/></g><g class="link" data-entity-1="Exception__class" data-entity-2="NoMatchException__class" data-uid="lnk31" id="link_Exception__class_NoMatchException__class"><polygon fill="none" points="107.3446,291,125.3446,297,125.3446,285,107.3446,291" style="stroke:#516F42;stroke-width:1;"/><path d="M125.3446,291 C142.4543,291 144.068,291 162.9805,291" fill="none" style="stroke:#516F42;stroke-width:1;"/></g><g class="link" data-entity-1="Exception__class" data-entity-2="RegExFailureException__class" data-uid="lnk33" id="link_Exception__class_RegExFailureException__class"><polygon fill="none" points="104.1828,311.0335,119.0351,322.8407,123.149,311.568,104.1828,311.0335" style="stroke:#516F42;stroke-width:1;"/><path d="M121.092,317.2043 C132.0702,320.5059 141.6334,322.2934 153.2375,324.965" fill="none" style="stroke:#516F42;stroke-width:1;"/></g><!--SRC=[pPNFRfj04CRlFCKqVO9MRKzH92TEgXxIIdQFID4Onh3AxWwQNMAZAE_UDGPi4gpY9gdi4_F7y_s-OSL-A0GpWw2nujA3C-JHOWG0xbxP0WKDJ4HuTSMQ1Jv-_VHj-ULpluw9Lm_ALvSiAScOHapkC-7IfatpiluDDqyL6hRfwE5j_nWDbsFAAsKpMA9s54M7IxkALfPyLH2m-9oZNAK4P0fVWI6p876HfgK7po0gopsaIYYmiOqSUR1eo1MOq9msutn0Y-Cewj9mYvBm5LkdCgquZh-pLHnUYrHn_CDwacNeSl2uSGAgJS3Pn6QQpW0Tr4ztTxjQq_mKFOtIQTeXqUZSmE1jVgDk2as6h7V1mpZkE7v1TnpSY2LSbag7ix93RXAlM4aSDpDQJLmuB-78zRTqMFaDTZRWugrDp4kpRs4NxWpGsfDD_mRV2Zr7RwQyahl5lH4szNptcoSBnxhq59XhzWErVpSoi8nti34ZZU4xDcXZhtQgDgQKA8EwGs_Yqpq-Kyg4oEq1r_7f0iymLMWxtcrukhXpB-4ExN2tuRlXDiBNwuIApOrRwtPH-uVpyrfNB6guk7WSRRCRv8Pko5yFuQEiUTKN7ouDBU1byTZNS93l9z-YJ_8-sVFaVsQQKNQzla6bIw4-s63bMBe_]--></g></svg>